<svg xmlns="http://www.w3.org/2000/svg" xmlns:xlink="http://www.w3.org/1999/xlink" width="2000" zoomAndPan="magnify" viewBox="0 0 1500 1499.999933" height="2000" preserveAspectRatio="xMidYMid meet" version="1.0"><defs><clipPath id="254f7bb222"><path d="M 173 355 L 832 355 L 832 1246 L 173 1246 Z M 173 355 " clip-rule="nonzero"/></clipPath><clipPath id="dcb3515add"><path d="M 0 476.710938 L 460.667969 254.410156 L 831.605469 1023.089844 L 370.9375 1245.390625 Z M 0 476.710938 " clip-rule="nonzero"/></clipPath><clipPath id="f92021a96e"><path d="M 0 476.710938 L 460.667969 254.410156 L 831.929688 1023.765625 L 371.261719 1246.066406 Z M 0 476.710938 " clip-rule="nonzero"/></clipPath><clipPath id="5b45014815"><path d="M 0 476.710938 L 460.667969 254.410156 L 994.253906 1360.148438 L 533.585938 1582.449219 Z M 0 476.710938 " clip-rule="nonzero"/></clipPath><clipPath id="054076d8a7"><path d="M 922 749 L 1372 749 L 1372 1309 L 922 1309 Z M 922 749 " clip-rule="nonzero"/></clipPath><clipPath id="865f412dd4"><path d="M 922.792969 1248.457031 L 1037.503906 749.984375 L 1393.449219 831.898438 L 1278.738281 1330.371094 Z M 922.792969 1248.457031 " clip-rule="nonzero"/></clipPath><clipPath id="acd112aac8"><path d="M 82.175781 1055.011719 L 196.886719 556.539062 L 1393.363281 831.878906 L 1278.652344 1330.347656 Z M 82.175781 1055.011719 " clip-rule="nonzero"/></clipPath><clipPath id="749fea0ea4"><path d="M 82.175781 1055.011719 L 196.886719 556.539062 L 1393.363281 831.878906 L 1278.652344 1330.347656 Z M 82.175781 1055.011719 " clip-rule="nonzero"/></clipPath><clipPath id="84105959a5"><path d="M 862 751 L 1210 751 L 1210 1266 L 862 1266 Z M 862 751 " clip-rule="nonzero"/></clipPath><clipPath id="32630587a7"><path d="M 894.15625 751.359375 L 1209.253906 771.601562 L 1177.523438 1265.585938 L 862.421875 1245.34375 Z M 894.15625 751.359375 " clip-rule="nonzero"/></clipPath><clipPath id="d126f0e068"><path d="M 893.753906 750.777344 L 1210.351562 771.117188 L 1178.523438 1266.59375 L 861.925781 1246.257812 Z M 893.753906 750.777344 " clip-rule="nonzero"/></clipPath><clipPath id="aee1d51202"><path d="M -360.597656 -17.375 L 1256.820312 86.527344 L 1163.398438 1540.777344 L -454.015625 1436.878906 Z M -360.597656 -17.375 " clip-rule="nonzero"/></clipPath><clipPath id="071c1d209b"><path d="M 862 1090 L 1158 1090 L 1158 1266 L 862 1266 Z M 862 1090 " clip-rule="nonzero"/></clipPath><clipPath id="081898c153"><path d="M 894.15625 751.359375 L 1209.253906 771.601562 L 1177.523438 1265.585938 L 862.421875 1245.34375 Z M 894.15625 751.359375 " clip-rule="nonzero"/></clipPath><clipPath id="9d2bbc7565"><path d="M 893.753906 750.777344 L 1210.351562 771.117188 L 1178.523438 1266.59375 L 861.925781 1246.257812 Z M 893.753906 750.777344 " clip-rule="nonzero"/></clipPath><clipPath id="661e40f109"><path d="M -360.597656 -17.375 L 1256.820312 86.527344 L 1163.398438 1540.777344 L -454.015625 1436.878906 Z M -360.597656 -17.375 " clip-rule="nonzero"/></clipPath><clipPath id="9655cab196"><path d="M 354 865 L 907 865 L 907 1263 L 354 1263 Z M 354 865 " clip-rule="nonzero"/></clipPath><clipPath id="31a7511342"><path d="M 713.472656 865.910156 L 906.363281 1120.613281 L 506.96875 1423.078125 L 314.082031 1168.375 Z M 713.472656 865.910156 " clip-rule="nonzero"/></clipPath><clipPath id="4691a5543b"><path d="M 713.777344 865.652344 L 907.574219 1121.550781 L 506.984375 1424.921875 L 313.1875 1169.023438 Z M 713.777344 865.652344 " clip-rule="nonzero"/></clipPath><clipPath id="5367596e04"><path d="M 472.191406 -603.5 L 1462 703.5 L 286.539062 1593.691406 L -703.269531 286.691406 Z M 472.191406 -603.5 " clip-rule="nonzero"/></clipPath><clipPath id="49f72f3f58"><path d="M 314 865 L 373 865 L 373 1424 L 314 1424 Z M 314 865 " clip-rule="nonzero"/></clipPath><clipPath id="4272a4f449"><path d="M 713.472656 865.910156 L 906.363281 1120.613281 L 506.96875 1423.078125 L 314.082031 1168.375 Z M 713.472656 865.910156 " clip-rule="nonzero"/></clipPath><clipPath id="64f362779e"><path d="M 713.777344 865.652344 L 907.574219 1121.550781 L 506.984375 1424.921875 L 313.1875 1169.023438 Z M 713.777344 865.652344 " clip-rule="nonzero"/></clipPath><clipPath id="5842ce9d0e"><path d="M 472.191406 -603.5 L 1462 703.5 L 286.539062 1593.691406 L -703.269531 286.691406 Z M 472.191406 -603.5 " clip-rule="nonzero"/></clipPath></defs><g clip-path="url(#254f7bb222)"><g clip-path="url(#dcb3515add)"><g clip-path="url(#f92021a96e)"><g clip-path="url(#5b45014815)"><path fill="#000000" d="M 667.171875 788.753906 L 611.671875 772.4375 C 608.53125 771.511719 605.445312 770.425781 602.417969 769.179688 C 599.390625 767.929688 596.4375 766.53125 593.554688 764.972656 C 590.671875 763.417969 587.878906 761.714844 585.175781 759.867188 C 582.472656 758.023438 579.871094 756.039062 577.375 753.917969 C 574.878906 751.800781 572.496094 749.558594 570.234375 747.191406 C 567.972656 744.824219 565.835938 742.34375 563.832031 739.753906 C 561.828125 737.164062 559.964844 734.480469 558.238281 731.695312 C 556.515625 728.910156 554.941406 726.042969 553.515625 723.09375 L 541.027344 697.21875 L 555.683594 690.144531 C 556.613281 689.695312 557.488281 689.164062 558.3125 688.542969 C 559.132812 687.921875 559.890625 687.226562 560.574219 686.457031 C 561.261719 685.6875 561.867188 684.859375 562.390625 683.972656 C 562.910156 683.082031 563.34375 682.152344 563.683594 681.179688 C 564.023438 680.207031 564.261719 679.210938 564.40625 678.1875 C 564.550781 677.167969 564.59375 676.144531 564.535156 675.113281 C 564.476562 674.085938 564.316406 673.070312 564.058594 672.074219 C 563.800781 671.074219 563.445312 670.113281 563 669.183594 L 496.882812 532.171875 C 496.207031 530.78125 495.46875 529.425781 494.660156 528.109375 C 493.855469 526.789062 492.984375 525.515625 492.050781 524.28125 C 491.121094 523.050781 490.132812 521.863281 489.082031 520.730469 C 488.035156 519.59375 486.933594 518.511719 485.78125 517.484375 C 484.625 516.457031 483.425781 515.488281 482.175781 514.578125 C 480.925781 513.664062 479.636719 512.820312 478.304688 512.035156 C 476.972656 511.25 475.605469 510.535156 474.203125 509.886719 C 472.800781 509.234375 471.371094 508.65625 469.910156 508.148438 C 468.453125 507.636719 466.972656 507.199219 465.46875 506.835938 C 463.96875 506.472656 462.449219 506.183594 460.921875 505.96875 C 459.390625 505.75 457.851562 505.613281 456.308594 505.546875 C 454.765625 505.480469 453.222656 505.492188 451.679688 505.578125 C 450.136719 505.664062 448.601562 505.828125 447.074219 506.066406 C 445.546875 506.300781 444.035156 506.613281 442.539062 506.996094 C 441.042969 507.382812 439.566406 507.839844 438.117188 508.371094 C 436.664062 508.898438 435.242188 509.5 433.847656 510.167969 L 428.46875 512.765625 C 419.039062 504.746094 410.539062 495.84375 402.960938 486.054688 C 395.386719 476.265625 388.898438 465.800781 383.5 454.660156 L 362.949219 412.070312 C 362.242188 410.605469 361.496094 409.15625 360.71875 407.726562 C 359.941406 406.296875 359.128906 404.890625 358.28125 403.5 C 357.433594 402.109375 356.550781 400.742188 355.636719 399.394531 C 354.722656 398.050781 353.777344 396.726562 352.796875 395.429688 C 351.816406 394.128906 350.804688 392.855469 349.761719 391.605469 C 348.722656 390.355469 347.648438 389.128906 346.546875 387.933594 C 345.445312 386.734375 344.3125 385.566406 343.152344 384.425781 C 341.996094 383.28125 340.808594 382.171875 339.59375 381.085938 C 338.378906 380.003906 337.136719 378.949219 335.871094 377.925781 C 334.605469 376.90625 333.316406 375.914062 332 374.953125 C 330.6875 373.996094 329.351562 373.070312 327.988281 372.175781 C 326.628906 371.28125 325.25 370.421875 323.847656 369.597656 C 322.445312 368.769531 321.023438 367.980469 319.582031 367.222656 C 318.140625 366.46875 316.679688 365.746094 315.203125 365.0625 C 313.726562 364.378906 312.234375 363.730469 310.726562 363.121094 C 309.21875 362.507812 307.699219 361.933594 306.160156 361.398438 C 304.625 360.863281 303.074219 360.363281 301.515625 359.902344 C 299.953125 359.445312 298.382812 359.023438 296.800781 358.640625 C 295.21875 358.253906 293.628906 357.910156 292.03125 357.605469 C 290.433594 357.300781 288.828125 357.035156 287.214844 356.808594 C 285.605469 356.582031 283.988281 356.398438 282.367188 356.25 C 280.746094 356.101562 279.125 355.996094 277.5 355.929688 C 275.871094 355.863281 274.246094 355.835938 272.617188 355.847656 C 270.992188 355.859375 269.367188 355.910156 267.742188 356.003906 C 266.117188 356.097656 264.496094 356.230469 262.878906 356.402344 C 261.257812 356.574219 259.644531 356.785156 258.039062 357.035156 C 256.429688 357.289062 254.832031 357.578125 253.238281 357.90625 C 251.644531 358.238281 250.058594 358.605469 248.484375 359.015625 C 246.910156 359.421875 245.34375 359.867188 243.789062 360.351562 C 242.238281 360.835938 240.695312 361.359375 239.167969 361.917969 C 237.640625 362.480469 236.128906 363.078125 234.628906 363.710938 C 233.132812 364.34375 231.648438 365.015625 230.183594 365.722656 C 228.71875 366.429688 227.269531 367.171875 225.839844 367.953125 C 224.414062 368.730469 223.003906 369.542969 221.613281 370.390625 C 220.226562 371.238281 218.859375 372.117188 217.511719 373.035156 C 216.167969 373.949219 214.84375 374.894531 213.542969 375.875 C 212.246094 376.855469 210.96875 377.863281 209.71875 378.90625 C 208.472656 379.949219 207.246094 381.023438 206.050781 382.125 C 204.851562 383.226562 203.683594 384.355469 202.542969 385.515625 C 201.402344 386.675781 200.289062 387.863281 199.203125 389.078125 C 198.121094 390.292969 197.070312 391.53125 196.046875 392.796875 C 195.023438 394.0625 194.035156 395.355469 193.074219 396.667969 C 192.113281 397.984375 191.1875 399.320312 190.296875 400.679688 C 189.402344 402.039062 188.542969 403.421875 187.71875 404.824219 C 186.890625 406.226562 186.101562 407.648438 185.34375 409.089844 C 184.589844 410.53125 183.871094 411.988281 183.183594 413.464844 C 182.5 414.941406 181.855469 416.433594 181.242188 417.941406 C 180.632812 419.453125 180.058594 420.972656 179.523438 422.511719 C 178.984375 424.046875 178.488281 425.59375 178.027344 427.15625 C 177.566406 428.71875 177.144531 430.289062 176.761719 431.871094 C 176.378906 433.453125 176.035156 435.042969 175.730469 436.640625 C 175.425781 438.238281 175.160156 439.84375 174.933594 441.457031 C 174.707031 443.066406 174.523438 444.683594 174.375 446.304688 C 174.230469 447.925781 174.121094 449.546875 174.054688 451.175781 C 173.988281 452.800781 173.960938 454.425781 173.972656 456.054688 C 173.984375 457.679688 174.039062 459.308594 174.132812 460.933594 C 174.222656 462.558594 174.355469 464.179688 174.527344 465.796875 C 174.699219 467.414062 174.914062 469.027344 175.164062 470.636719 C 175.414062 472.242188 175.707031 473.84375 176.035156 475.4375 C 176.367188 477.03125 176.734375 478.617188 177.144531 480.191406 C 177.550781 481.765625 177.996094 483.332031 178.480469 484.886719 C 178.964844 486.4375 179.488281 487.980469 180.046875 489.507812 C 180.609375 491.035156 181.207031 492.546875 181.839844 494.046875 C 182.476562 495.546875 183.144531 497.027344 183.851562 498.492188 L 204.40625 541.085938 C 209.769531 552.242188 213.921875 563.832031 216.871094 575.851562 C 219.820312 587.875 221.5 600.070312 221.910156 612.441406 L 217.144531 614.742188 C 215.753906 615.417969 214.398438 616.15625 213.082031 616.964844 C 211.761719 617.769531 210.488281 618.640625 209.253906 619.570312 C 208.023438 620.503906 206.835938 621.492188 205.703125 622.542969 C 204.566406 623.589844 203.484375 624.691406 202.457031 625.84375 C 201.429688 627 200.460938 628.199219 199.550781 629.449219 C 198.640625 630.699219 197.792969 631.988281 197.007812 633.320312 C 196.226562 634.652344 195.507812 636.019531 194.859375 637.421875 C 194.210938 638.824219 193.632812 640.253906 193.121094 641.714844 C 192.613281 643.171875 192.175781 644.652344 191.8125 646.15625 C 191.449219 647.65625 191.160156 649.175781 190.945312 650.703125 C 190.726562 652.234375 190.589844 653.773438 190.523438 655.316406 C 190.457031 656.859375 190.46875 658.402344 190.554688 659.945312 C 190.644531 661.488281 190.804688 663.023438 191.042969 664.550781 C 191.277344 666.078125 191.589844 667.589844 191.976562 669.085938 C 192.359375 670.585938 192.820312 672.058594 193.347656 673.511719 C 193.878906 674.960938 194.476562 676.386719 195.148438 677.777344 L 261.265625 814.789062 C 261.710938 815.71875 262.246094 816.59375 262.867188 817.417969 C 263.488281 818.238281 264.183594 818.996094 264.949219 819.679688 C 265.71875 820.367188 266.546875 820.972656 267.4375 821.496094 C 268.324219 822.019531 269.253906 822.449219 270.230469 822.789062 C 271.203125 823.128906 272.199219 823.371094 273.21875 823.515625 C 274.242188 823.65625 275.265625 823.699219 276.292969 823.640625 C 277.324219 823.582031 278.335938 823.425781 279.335938 823.164062 C 280.332031 822.90625 281.296875 822.554688 282.222656 822.105469 L 296.878906 815.035156 L 309.367188 840.910156 C 310.789062 843.863281 312.050781 846.878906 313.15625 849.960938 C 314.265625 853.042969 315.207031 856.175781 315.988281 859.355469 C 316.765625 862.535156 317.378906 865.75 317.824219 868.992188 C 318.269531 872.238281 318.542969 875.496094 318.648438 878.769531 C 318.753906 882.042969 318.6875 885.3125 318.449219 888.578125 C 318.214844 891.84375 317.808594 895.089844 317.234375 898.3125 C 316.660156 901.539062 315.917969 904.722656 315.011719 907.867188 C 314.105469 911.015625 313.035156 914.105469 311.808594 917.140625 L 290.035156 970.746094 C 288.203125 975.28125 286.605469 979.898438 285.253906 984.597656 C 283.898438 989.300781 282.796875 994.058594 281.9375 998.875 C 281.082031 1003.695312 280.476562 1008.542969 280.125 1013.421875 C 279.773438 1018.300781 279.675781 1023.1875 279.835938 1028.078125 C 279.992188 1032.964844 280.40625 1037.835938 281.070312 1042.683594 C 281.738281 1047.527344 282.652344 1052.328125 283.820312 1057.078125 C 284.988281 1061.832031 286.398438 1066.507812 288.050781 1071.113281 C 289.707031 1075.71875 291.59375 1080.222656 293.71875 1084.632812 L 299.234375 1096.058594 C 299.496094 1097.101562 299.863281 1098.109375 300.332031 1099.078125 L 457.667969 1425.125 C 458.136719 1426.089844 458.695312 1427 459.34375 1427.851562 L 486.914062 1484.988281 C 487.683594 1486.570312 488.488281 1488.132812 489.332031 1489.675781 C 490.175781 1491.21875 491.054688 1492.742188 491.972656 1494.242188 C 492.890625 1495.742188 493.84375 1497.21875 494.835938 1498.671875 C 495.824219 1500.125 496.851562 1501.554688 497.910156 1502.957031 C 498.972656 1504.359375 500.066406 1505.734375 501.195312 1507.085938 C 502.320312 1508.433594 503.480469 1509.753906 504.675781 1511.046875 C 505.867188 1512.339844 507.089844 1513.601562 508.34375 1514.835938 C 509.597656 1516.070312 510.882812 1517.269531 512.195312 1518.4375 C 513.511719 1519.609375 514.851562 1520.746094 516.21875 1521.851562 C 517.589844 1522.953125 518.984375 1524.023438 520.40625 1525.058594 C 521.828125 1526.09375 523.273438 1527.09375 524.742188 1528.058594 C 526.214844 1529.023438 527.707031 1529.953125 529.222656 1530.84375 C 530.738281 1531.734375 532.277344 1532.589844 533.832031 1533.40625 C 535.390625 1534.222656 536.96875 1535 538.5625 1535.738281 C 540.160156 1536.476562 541.773438 1537.175781 543.402344 1537.835938 C 545.03125 1538.496094 546.679688 1539.117188 548.339844 1539.695312 C 550 1540.273438 551.671875 1540.8125 553.359375 1541.308594 C 555.046875 1541.808594 556.742188 1542.261719 558.453125 1542.675781 C 560.164062 1543.089844 561.878906 1543.460938 563.609375 1543.792969 C 565.335938 1544.121094 567.070312 1544.410156 568.8125 1544.652344 C 570.554688 1544.898438 572.300781 1545.101562 574.050781 1545.261719 C 575.800781 1545.417969 577.554688 1545.535156 579.3125 1545.609375 C 581.070312 1545.683594 582.828125 1545.710938 584.585938 1545.699219 C 586.34375 1545.6875 588.101562 1545.628906 589.859375 1545.53125 C 591.613281 1545.433594 593.367188 1545.289062 595.113281 1545.105469 C 596.863281 1544.917969 598.605469 1544.691406 600.34375 1544.421875 C 602.082031 1544.152344 603.8125 1543.839844 605.535156 1543.484375 C 607.253906 1543.128906 608.96875 1542.730469 610.671875 1542.292969 C 612.375 1541.851562 614.066406 1541.371094 615.742188 1540.851562 C 617.421875 1540.328125 619.089844 1539.765625 620.742188 1539.160156 C 622.390625 1538.558594 624.027344 1537.914062 625.648438 1537.230469 C 627.269531 1536.546875 628.871094 1535.824219 630.453125 1535.0625 L 897.152344 1406.363281 C 898.738281 1405.597656 900.300781 1404.792969 901.84375 1403.949219 C 903.386719 1403.105469 904.910156 1402.226562 906.410156 1401.308594 C 907.910156 1400.390625 909.390625 1399.4375 910.84375 1398.445312 C 912.296875 1397.457031 913.726562 1396.429688 915.128906 1395.371094 C 916.53125 1394.3125 917.910156 1393.21875 919.261719 1392.089844 C 920.609375 1390.960938 921.929688 1389.800781 923.222656 1388.609375 C 924.519531 1387.417969 925.78125 1386.195312 927.015625 1384.9375 C 928.246094 1383.683594 929.449219 1382.402344 930.617188 1381.085938 C 931.789062 1379.773438 932.925781 1378.433594 934.03125 1377.066406 C 935.136719 1375.695312 936.207031 1374.300781 937.242188 1372.878906 C 938.277344 1371.457031 939.277344 1370.011719 940.242188 1368.539062 C 941.210938 1367.070312 942.136719 1365.578125 943.03125 1364.0625 C 943.921875 1362.542969 944.777344 1361.007812 945.59375 1359.449219 C 946.410156 1357.890625 947.1875 1356.3125 947.925781 1354.71875 C 948.664062 1353.121094 949.367188 1351.507812 950.027344 1349.878906 C 950.6875 1348.246094 951.304688 1346.601562 951.886719 1344.941406 C 952.464844 1343.28125 953.003906 1341.605469 953.5 1339.917969 C 954 1338.230469 954.453125 1336.535156 954.867188 1334.824219 C 955.28125 1333.113281 955.65625 1331.394531 955.984375 1329.667969 C 956.316406 1327.941406 956.601562 1326.203125 956.847656 1324.460938 C 957.09375 1322.722656 957.292969 1320.972656 957.453125 1319.222656 C 957.613281 1317.46875 957.730469 1315.714844 957.800781 1313.957031 C 957.875 1312.199219 957.90625 1310.441406 957.894531 1308.683594 C 957.878906 1306.921875 957.824219 1305.164062 957.726562 1303.410156 C 957.625 1301.652344 957.484375 1299.898438 957.296875 1298.152344 C 957.113281 1296.402344 956.886719 1294.65625 956.617188 1292.917969 C 956.34375 1291.179688 956.03125 1289.449219 955.675781 1287.726562 C 955.320312 1286.003906 954.925781 1284.292969 954.484375 1282.589844 C 954.046875 1280.886719 953.566406 1279.191406 953.042969 1277.511719 C 952.519531 1275.832031 951.957031 1274.167969 951.351562 1272.515625 C 950.75 1270.863281 950.105469 1269.226562 949.421875 1267.605469 C 948.738281 1265.984375 948.015625 1264.382812 947.25 1262.796875 L 754.074219 862.480469 C 751.945312 858.074219 749.589844 853.792969 747.015625 849.632812 C 744.4375 845.472656 741.652344 841.457031 738.65625 837.589844 C 735.660156 833.71875 732.472656 830.015625 729.089844 826.480469 C 725.707031 822.945312 722.152344 819.59375 718.417969 816.425781 C 714.6875 813.261719 710.800781 810.296875 706.761719 807.539062 C 702.722656 804.777344 698.546875 802.234375 694.242188 799.910156 C 689.9375 797.585938 685.523438 795.492188 680.996094 793.625 C 676.472656 791.761719 671.863281 790.136719 667.171875 788.753906 Z M 232.710938 527.425781 L 212.160156 484.835938 C 211.675781 483.832031 211.214844 482.816406 210.78125 481.792969 C 210.347656 480.765625 209.9375 479.730469 209.554688 478.683594 C 209.171875 477.640625 208.8125 476.585938 208.480469 475.519531 C 208.148438 474.457031 207.84375 473.386719 207.566406 472.308594 C 207.285156 471.230469 207.035156 470.148438 206.808594 469.054688 C 206.582031 467.964844 206.382812 466.871094 206.210938 465.769531 C 206.039062 464.667969 205.894531 463.566406 205.777344 462.457031 C 205.660156 461.351562 205.566406 460.242188 205.503906 459.128906 C 205.441406 458.015625 205.40625 456.902344 205.398438 455.789062 C 205.386719 454.675781 205.40625 453.5625 205.453125 452.449219 C 205.5 451.335938 205.570312 450.226562 205.671875 449.117188 C 205.773438 448.007812 205.898438 446.902344 206.054688 445.800781 C 206.210938 444.695312 206.390625 443.597656 206.601562 442.503906 C 206.808594 441.410156 207.042969 440.320312 207.304688 439.238281 C 207.566406 438.15625 207.855469 437.082031 208.171875 436.011719 C 208.484375 434.945312 208.828125 433.886719 209.195312 432.832031 C 209.5625 431.78125 209.953125 430.738281 210.371094 429.707031 C 210.789062 428.675781 211.234375 427.65625 211.699219 426.644531 C 212.167969 425.632812 212.660156 424.636719 213.179688 423.648438 C 213.695312 422.664062 214.238281 421.6875 214.800781 420.730469 C 215.367188 419.769531 215.957031 418.824219 216.566406 417.894531 C 217.179688 416.964844 217.8125 416.046875 218.46875 415.148438 C 219.125 414.25 219.804688 413.367188 220.503906 412.5 C 221.203125 411.632812 221.921875 410.785156 222.664062 409.953125 C 223.40625 409.121094 224.167969 408.308594 224.949219 407.515625 C 225.730469 406.722656 226.53125 405.949219 227.347656 405.195312 C 228.167969 404.441406 229.003906 403.707031 229.859375 402.992188 C 230.714844 402.28125 231.589844 401.585938 232.476562 400.917969 C 233.367188 400.246094 234.273438 399.597656 235.191406 398.972656 C 236.113281 398.347656 237.050781 397.742188 238 397.164062 C 238.953125 396.585938 239.917969 396.027344 240.894531 395.496094 C 241.871094 394.960938 242.863281 394.453125 243.867188 393.96875 C 244.867188 393.484375 245.882812 393.027344 246.90625 392.59375 C 247.933594 392.160156 248.96875 391.75 250.015625 391.367188 C 251.058594 390.984375 252.113281 390.625 253.179688 390.292969 C 254.242188 389.960938 255.3125 389.65625 256.390625 389.378906 C 257.46875 389.097656 258.550781 388.847656 259.640625 388.621094 C 260.734375 388.394531 261.828125 388.195312 262.929688 388.023438 C 264.027344 387.851562 265.132812 387.707031 266.242188 387.589844 C 267.347656 387.472656 268.457031 387.382812 269.570312 387.320312 C 270.679688 387.253906 271.792969 387.21875 272.90625 387.210938 C 274.019531 387.203125 275.132812 387.222656 276.246094 387.265625 C 277.359375 387.3125 278.46875 387.386719 279.578125 387.488281 C 280.6875 387.585938 281.792969 387.714844 282.898438 387.871094 C 284 388.023438 285.097656 388.207031 286.191406 388.414062 C 287.285156 388.625 288.375 388.859375 289.457031 389.121094 C 290.539062 389.382812 291.613281 389.671875 292.683594 389.988281 C 293.75 390.300781 294.8125 390.644531 295.863281 391.011719 C 296.914062 391.378906 297.957031 391.769531 298.988281 392.1875 C 300.019531 392.605469 301.042969 393.050781 302.050781 393.519531 C 303.0625 393.988281 304.0625 394.480469 305.046875 394.996094 C 306.035156 395.515625 307.007812 396.054688 307.964844 396.621094 C 308.925781 397.1875 309.871094 397.773438 310.800781 398.386719 C 311.730469 398.996094 312.648438 399.632812 313.546875 400.289062 C 314.445312 400.945312 315.332031 401.621094 316.195312 402.324219 C 317.0625 403.023438 317.910156 403.742188 318.742188 404.484375 C 319.574219 405.226562 320.386719 405.988281 321.179688 406.769531 C 321.972656 407.550781 322.746094 408.351562 323.5 409.167969 C 324.257812 409.988281 324.988281 410.828125 325.703125 411.683594 C 326.417969 412.539062 327.109375 413.410156 327.777344 414.300781 C 328.449219 415.1875 329.097656 416.09375 329.722656 417.015625 C 330.347656 417.9375 330.953125 418.871094 331.53125 419.824219 C 332.113281 420.773438 332.667969 421.738281 333.199219 422.714844 C 333.734375 423.695312 334.242188 424.683594 334.726562 425.6875 L 355.28125 468.28125 C 360.621094 479.316406 366.882812 489.800781 374.0625 499.738281 C 381.242188 509.675781 389.230469 518.917969 398.023438 527.457031 L 252.429688 597.714844 C 251.21875 585.515625 248.957031 573.511719 245.644531 561.707031 C 242.332031 549.902344 238.023438 538.476562 232.710938 527.425781 Z M 223.453125 664.117188 C 223.003906 663.183594 222.648438 662.214844 222.390625 661.207031 C 222.128906 660.203125 221.972656 659.183594 221.914062 658.144531 C 221.855469 657.109375 221.898438 656.078125 222.042969 655.050781 C 222.1875 654.023438 222.429688 653.019531 222.773438 652.039062 C 223.113281 651.058594 223.546875 650.121094 224.074219 649.226562 C 224.601562 648.332031 225.210938 647.496094 225.898438 646.722656 C 226.589844 645.949219 227.347656 645.246094 228.175781 644.621094 C 229.003906 643.996094 229.886719 643.457031 230.820312 643.003906 L 447.496094 538.445312 C 448.429688 537.996094 449.398438 537.640625 450.40625 537.382812 C 451.410156 537.125 452.429688 536.964844 453.46875 536.90625 C 454.503906 536.847656 455.535156 536.890625 456.5625 537.035156 C 457.589844 537.183594 458.59375 537.425781 459.574219 537.765625 C 460.554688 538.109375 461.492188 538.542969 462.386719 539.070312 C 463.28125 539.597656 464.117188 540.203125 464.890625 540.894531 C 465.664062 541.585938 466.367188 542.34375 466.992188 543.171875 C 467.617188 544 468.15625 544.882812 468.609375 545.816406 L 527.902344 668.691406 L 282.765625 786.984375 Z M 319.164062 982.546875 L 340.921875 928.9375 C 342.5625 924.890625 343.988281 920.765625 345.199219 916.570312 C 346.410156 912.371094 347.398438 908.125 348.164062 903.824219 C 348.929688 899.523438 349.472656 895.195312 349.789062 890.835938 C 350.101562 886.480469 350.191406 882.117188 350.050781 877.753906 C 349.914062 873.386719 349.546875 869.039062 348.953125 864.710938 C 348.359375 860.382812 347.542969 856.097656 346.503906 851.855469 C 345.464844 847.613281 344.203125 843.433594 342.730469 839.324219 C 341.253906 835.210938 339.566406 831.1875 337.671875 827.253906 L 325.183594 801.375 L 512.753906 710.859375 L 525.242188 736.738281 C 527.144531 740.671875 529.246094 744.496094 531.542969 748.207031 C 533.84375 751.921875 536.332031 755.503906 539.003906 758.957031 C 541.679688 762.414062 544.527344 765.71875 547.542969 768.875 C 550.5625 772.035156 553.738281 775.023438 557.070312 777.851562 C 560.398438 780.675781 563.867188 783.324219 567.472656 785.785156 C 571.082031 788.25 574.804688 790.523438 578.648438 792.597656 C 582.492188 794.671875 586.433594 796.542969 590.46875 798.207031 C 594.507812 799.875 598.621094 801.324219 602.8125 802.558594 L 658.324219 818.882812 C 661.96875 819.957031 665.546875 821.214844 669.058594 822.664062 C 672.574219 824.113281 676 825.738281 679.34375 827.542969 C 682.6875 829.347656 685.925781 831.324219 689.0625 833.464844 C 692.203125 835.609375 695.21875 837.910156 698.117188 840.367188 C 701.011719 842.824219 703.773438 845.429688 706.398438 848.171875 C 709.027344 850.917969 711.503906 853.792969 713.828125 856.800781 C 716.152344 859.804688 718.316406 862.921875 720.320312 866.148438 C 722.320312 869.378906 724.148438 872.703125 725.800781 876.125 L 725.886719 876.300781 L 322.078125 1071.164062 L 321.992188 1070.988281 C 320.34375 1067.566406 318.878906 1064.066406 317.59375 1060.488281 C 316.308594 1056.914062 315.214844 1053.28125 314.3125 1049.589844 C 313.40625 1045.898438 312.695312 1042.171875 312.179688 1038.40625 C 311.664062 1034.644531 311.347656 1030.863281 311.222656 1027.066406 C 311.101562 1023.265625 311.179688 1019.472656 311.453125 1015.683594 C 311.726562 1011.894531 312.199219 1008.128906 312.867188 1004.390625 C 313.535156 1000.648438 314.394531 996.953125 315.445312 993.304688 C 316.5 989.652344 317.738281 986.066406 319.164062 982.546875 Z M 335.722656 1099.441406 L 739.261719 904.710938 L 882.949219 1202.46875 L 479.410156 1397.203125 Z M 883.503906 1378.074219 L 616.804688 1506.773438 C 615.683594 1507.3125 614.546875 1507.824219 613.398438 1508.308594 C 612.253906 1508.792969 611.09375 1509.25 609.925781 1509.679688 C 608.753906 1510.105469 607.574219 1510.503906 606.386719 1510.875 C 605.199219 1511.246094 604 1511.585938 602.792969 1511.894531 C 601.585938 1512.207031 600.375 1512.488281 599.15625 1512.738281 C 597.933594 1512.992188 596.710938 1513.210938 595.480469 1513.40625 C 594.25 1513.597656 593.015625 1513.757812 591.777344 1513.886719 C 590.539062 1514.019531 589.296875 1514.121094 588.054688 1514.191406 C 586.808594 1514.261719 585.566406 1514.300781 584.320312 1514.308594 C 583.074219 1514.316406 581.828125 1514.296875 580.585938 1514.242188 C 579.339844 1514.191406 578.097656 1514.109375 576.859375 1513.996094 C 575.617188 1513.882812 574.382812 1513.742188 573.148438 1513.566406 C 571.914062 1513.394531 570.6875 1513.191406 569.464844 1512.957031 C 568.238281 1512.722656 567.023438 1512.460938 565.8125 1512.164062 C 564.601562 1511.871094 563.398438 1511.550781 562.203125 1511.195312 C 561.011719 1510.84375 559.824219 1510.464844 558.648438 1510.054688 C 557.472656 1509.640625 556.308594 1509.203125 555.152344 1508.734375 C 554 1508.269531 552.859375 1507.773438 551.726562 1507.25 C 550.597656 1506.726562 549.480469 1506.175781 548.378906 1505.597656 C 547.273438 1505.019531 546.1875 1504.414062 545.113281 1503.78125 C 544.039062 1503.148438 542.980469 1502.492188 541.941406 1501.808594 C 540.898438 1501.125 539.875 1500.414062 538.871094 1499.683594 C 537.863281 1498.949219 536.875 1498.191406 535.90625 1497.40625 C 534.9375 1496.625 533.988281 1495.820312 533.058594 1494.992188 C 532.128906 1494.164062 531.21875 1493.3125 530.332031 1492.4375 C 529.441406 1491.566406 528.578125 1490.671875 527.734375 1489.753906 C 526.886719 1488.839844 526.066406 1487.902344 525.269531 1486.945312 C 524.46875 1485.992188 523.695312 1485.015625 522.945312 1484.023438 C 522.195312 1483.027344 521.46875 1482.015625 520.769531 1480.988281 C 520.066406 1479.957031 519.390625 1478.910156 518.742188 1477.847656 C 518.09375 1476.785156 517.46875 1475.707031 516.871094 1474.613281 C 516.277344 1473.519531 515.707031 1472.414062 515.164062 1471.292969 L 493.054688 1425.480469 L 896.867188 1230.617188 L 918.976562 1276.441406 C 919.515625 1277.5625 920.03125 1278.699219 920.515625 1279.84375 C 921 1280.992188 921.453125 1282.152344 921.882812 1283.320312 C 922.308594 1284.492188 922.707031 1285.671875 923.078125 1286.859375 C 923.445312 1288.046875 923.789062 1289.246094 924.097656 1290.453125 C 924.410156 1291.65625 924.691406 1292.871094 924.941406 1294.089844 C 925.191406 1295.308594 925.414062 1296.535156 925.605469 1297.765625 C 925.796875 1298.996094 925.957031 1300.230469 926.089844 1301.46875 C 926.21875 1302.707031 926.320312 1303.949219 926.390625 1305.191406 C 926.460938 1306.4375 926.5 1307.679688 926.511719 1308.925781 C 926.519531 1310.171875 926.496094 1311.417969 926.445312 1312.660156 C 926.394531 1313.90625 926.3125 1315.148438 926.199219 1316.386719 C 926.085938 1317.628906 925.941406 1318.863281 925.769531 1320.097656 C 925.59375 1321.332031 925.390625 1322.558594 925.160156 1323.78125 C 924.925781 1325.003906 924.660156 1326.222656 924.367188 1327.433594 C 924.074219 1328.644531 923.75 1329.84375 923.398438 1331.039062 C 923.046875 1332.234375 922.664062 1333.417969 922.253906 1334.59375 C 921.84375 1335.769531 921.40625 1336.9375 920.9375 1338.089844 C 920.472656 1339.246094 919.976562 1340.386719 919.453125 1341.515625 C 918.929688 1342.644531 918.378906 1343.761719 917.800781 1344.867188 C 917.222656 1345.96875 916.617188 1347.058594 915.984375 1348.128906 C 915.351562 1349.203125 914.695312 1350.261719 914.011719 1351.300781 C 913.328125 1352.34375 912.621094 1353.367188 911.886719 1354.371094 C 911.152344 1355.378906 910.394531 1356.367188 909.613281 1357.335938 C 908.832031 1358.304688 908.027344 1359.253906 907.199219 1360.183594 C 906.367188 1361.113281 905.519531 1362.023438 904.644531 1362.910156 C 903.773438 1363.796875 902.878906 1364.664062 901.960938 1365.507812 C 901.046875 1366.351562 900.109375 1367.175781 899.15625 1367.972656 C 898.199219 1368.769531 897.222656 1369.542969 896.230469 1370.292969 C 895.238281 1371.046875 894.226562 1371.769531 893.195312 1372.472656 C 892.167969 1373.171875 891.121094 1373.847656 890.058594 1374.496094 C 888.996094 1375.148438 887.917969 1375.769531 886.824219 1376.367188 C 885.730469 1376.964844 884.625 1377.53125 883.503906 1378.074219 Z M 883.503906 1378.074219 " fill-opacity="1" fill-rule="nonzero"/></g></g></g></g><g clip-path="url(#054076d8a7)"><g clip-path="url(#865f412dd4)"><g clip-path="url(#acd112aac8)"><g clip-path="url(#749fea0ea4)"><path fill="#000000" d="M 742.960938 729.660156 L 695.515625 762.757812 C 692.828125 764.628906 690.050781 766.355469 687.183594 767.9375 C 684.316406 769.519531 681.375 770.949219 678.359375 772.222656 C 675.34375 773.496094 672.269531 774.613281 669.136719 775.566406 C 666.003906 776.519531 662.828125 777.308594 659.613281 777.933594 C 656.398438 778.554688 653.160156 779.007812 649.898438 779.292969 C 646.632812 779.578125 643.367188 779.695312 640.089844 779.636719 C 636.816406 779.582031 633.554688 779.355469 630.304688 778.960938 C 627.050781 778.5625 623.832031 778 620.640625 777.265625 L 592.636719 770.824219 L 596.289062 754.964844 C 596.519531 753.960938 596.648438 752.941406 596.679688 751.910156 C 596.710938 750.882812 596.640625 749.859375 596.46875 748.839844 C 596.300781 747.824219 596.03125 746.835938 595.664062 745.871094 C 595.300781 744.90625 594.84375 743.988281 594.296875 743.117188 C 593.75 742.242188 593.121094 741.429688 592.414062 740.679688 C 591.707031 739.929688 590.933594 739.253906 590.097656 738.65625 C 589.257812 738.058594 588.367188 737.550781 587.425781 737.125 C 586.484375 736.703125 585.515625 736.378906 584.507812 736.144531 L 436.253906 702.027344 C 434.746094 701.683594 433.226562 701.414062 431.695312 701.21875 C 430.160156 701.023438 428.621094 700.90625 427.078125 700.859375 C 425.53125 700.816406 423.988281 700.847656 422.445312 700.957031 C 420.90625 701.0625 419.371094 701.246094 417.847656 701.503906 C 416.324219 701.761719 414.816406 702.089844 413.324219 702.496094 C 411.835938 702.902344 410.367188 703.378906 408.921875 703.929688 C 407.476562 704.476562 406.0625 705.09375 404.679688 705.78125 C 403.292969 706.472656 401.949219 707.222656 400.636719 708.042969 C 399.328125 708.863281 398.0625 709.746094 396.835938 710.691406 C 395.613281 711.632812 394.4375 712.636719 393.3125 713.695312 C 392.1875 714.753906 391.117188 715.867188 390.101562 717.03125 C 389.085938 718.195312 388.128906 719.40625 387.230469 720.664062 C 386.332031 721.921875 385.5 723.21875 384.726562 724.558594 C 383.957031 725.898438 383.253906 727.273438 382.621094 728.679688 C 381.984375 730.089844 381.417969 731.527344 380.925781 732.988281 C 380.429688 734.453125 380.007812 735.9375 379.660156 737.445312 L 378.320312 743.265625 C 366.164062 745.605469 353.898438 746.671875 341.523438 746.457031 C 329.148438 746.246094 316.925781 744.761719 304.859375 742.007812 L 258.769531 731.402344 C 257.183594 731.035156 255.589844 730.710938 253.988281 730.421875 C 252.386719 730.136719 250.777344 729.890625 249.164062 729.679688 C 247.550781 729.472656 245.933594 729.304688 244.308594 729.175781 C 242.6875 729.050781 241.0625 728.960938 239.4375 728.910156 C 237.808594 728.863281 236.183594 728.855469 234.554688 728.886719 C 232.929688 728.917969 231.304688 728.988281 229.679688 729.097656 C 228.054688 729.210938 226.4375 729.359375 224.820312 729.550781 C 223.203125 729.742188 221.59375 729.972656 219.988281 730.242188 C 218.382812 730.511719 216.785156 730.820312 215.195312 731.167969 C 213.605469 731.515625 212.027344 731.902344 210.457031 732.328125 C 208.886719 732.753906 207.324219 733.21875 205.777344 733.722656 C 204.230469 734.222656 202.695312 734.761719 201.171875 735.339844 C 199.652344 735.917969 198.144531 736.53125 196.65625 737.183594 C 195.164062 737.835938 193.6875 738.523438 192.230469 739.246094 C 190.773438 739.972656 189.335938 740.730469 187.914062 741.523438 C 186.496094 742.320312 185.09375 743.148438 183.714844 744.011719 C 182.335938 744.875 180.980469 745.769531 179.644531 746.703125 C 178.308594 747.632812 176.996094 748.59375 175.707031 749.585938 C 174.417969 750.582031 173.15625 751.605469 171.917969 752.664062 C 170.679688 753.71875 169.46875 754.804688 168.285156 755.921875 C 167.101562 757.039062 165.945312 758.179688 164.816406 759.355469 C 163.6875 760.527344 162.589844 761.726562 161.519531 762.953125 C 160.449219 764.179688 159.410156 765.429688 158.402344 766.707031 C 157.394531 767.984375 156.417969 769.289062 155.476562 770.613281 C 154.53125 771.9375 153.621094 773.285156 152.742188 774.65625 C 151.863281 776.027344 151.019531 777.417969 150.210938 778.828125 C 149.402344 780.238281 148.625 781.671875 147.886719 783.121094 C 147.148438 784.570312 146.445312 786.035156 145.777344 787.519531 C 145.109375 789.003906 144.480469 790.503906 143.886719 792.019531 C 143.292969 793.535156 142.734375 795.0625 142.21875 796.605469 C 141.699219 798.148438 141.21875 799.703125 140.777344 801.269531 C 140.332031 802.832031 139.929688 804.410156 139.566406 805.996094 C 139.199219 807.582031 138.875 809.175781 138.585938 810.777344 C 138.300781 812.378906 138.054688 813.988281 137.847656 815.601562 C 137.636719 817.214844 137.46875 818.832031 137.34375 820.453125 C 137.214844 822.078125 137.125 823.699219 137.078125 825.328125 C 137.027344 826.953125 137.019531 828.582031 137.050781 830.207031 C 137.082031 831.835938 137.152344 833.460938 137.265625 835.082031 C 137.375 836.707031 137.527344 838.328125 137.71875 839.941406 C 137.910156 841.558594 138.136719 843.167969 138.410156 844.773438 C 138.679688 846.378906 138.988281 847.976562 139.335938 849.566406 C 139.683594 851.15625 140.070312 852.734375 140.496094 854.304688 C 140.921875 855.875 141.386719 857.433594 141.886719 858.984375 C 142.390625 860.53125 142.929688 862.066406 143.507812 863.585938 C 144.085938 865.109375 144.699219 866.613281 145.351562 868.105469 C 146.003906 869.597656 146.691406 871.070312 147.417969 872.527344 C 148.140625 873.984375 148.898438 875.421875 149.695312 876.84375 C 150.488281 878.265625 151.316406 879.664062 152.179688 881.042969 C 153.042969 882.421875 153.941406 883.78125 154.871094 885.113281 C 155.800781 886.449219 156.765625 887.761719 157.757812 889.050781 C 158.753906 890.339844 159.777344 891.601562 160.835938 892.839844 C 161.890625 894.078125 162.976562 895.289062 164.09375 896.472656 C 165.210938 897.65625 166.351562 898.8125 167.527344 899.941406 C 168.699219 901.070312 169.898438 902.167969 171.125 903.238281 C 172.351562 904.308594 173.605469 905.347656 174.882812 906.355469 C 176.160156 907.363281 177.460938 908.339844 178.785156 909.28125 C 180.113281 910.226562 181.460938 911.136719 182.832031 912.015625 C 184.199219 912.894531 185.59375 913.738281 187.003906 914.546875 C 188.414062 915.355469 189.847656 916.128906 191.296875 916.871094 C 192.746094 917.609375 194.210938 918.3125 195.695312 918.980469 C 197.179688 919.648438 198.679688 920.277344 200.195312 920.871094 C 201.710938 921.464844 203.242188 922.019531 204.78125 922.539062 C 206.324219 923.058594 207.878906 923.539062 209.445312 923.980469 C 211.011719 924.421875 212.589844 924.828125 214.175781 925.191406 L 260.261719 935.796875 C 272.320312 938.59375 283.960938 942.601562 295.183594 947.820312 C 306.410156 953.039062 316.976562 959.355469 326.882812 966.773438 L 325.695312 971.933594 C 325.351562 973.441406 325.082031 974.960938 324.886719 976.492188 C 324.691406 978.027344 324.574219 979.566406 324.53125 981.109375 C 324.484375 982.652344 324.515625 984.195312 324.625 985.738281 C 324.730469 987.28125 324.914062 988.8125 325.171875 990.335938 C 325.429688 991.859375 325.761719 993.367188 326.164062 994.859375 C 326.570312 996.351562 327.046875 997.820312 327.597656 999.261719 C 328.148438 1000.707031 328.765625 1002.121094 329.453125 1003.503906 C 330.140625 1004.890625 330.894531 1006.234375 331.714844 1007.546875 C 332.535156 1008.855469 333.417969 1010.121094 334.359375 1011.347656 C 335.304688 1012.570312 336.308594 1013.746094 337.367188 1014.871094 C 338.425781 1015.996094 339.539062 1017.066406 340.703125 1018.082031 C 341.867188 1019.097656 343.078125 1020.054688 344.335938 1020.953125 C 345.59375 1021.851562 346.890625 1022.683594 348.230469 1023.453125 C 349.570312 1024.226562 350.945312 1024.929688 352.355469 1025.5625 C 353.765625 1026.199219 355.199219 1026.765625 356.664062 1027.257812 C 358.128906 1027.753906 359.613281 1028.175781 361.117188 1028.523438 L 509.375 1062.640625 C 510.378906 1062.871094 511.394531 1063.003906 512.425781 1063.035156 C 513.457031 1063.066406 514.480469 1062.996094 515.496094 1062.824219 C 516.511719 1062.652344 517.503906 1062.386719 518.46875 1062.019531 C 519.429688 1061.652344 520.347656 1061.199219 521.222656 1060.652344 C 522.097656 1060.105469 522.910156 1059.476562 523.660156 1058.769531 C 524.410156 1058.0625 525.082031 1057.289062 525.683594 1056.453125 C 526.28125 1055.613281 526.789062 1054.722656 527.210938 1053.78125 C 527.636719 1052.84375 527.960938 1051.871094 528.195312 1050.867188 L 531.84375 1035.007812 L 559.84375 1041.449219 C 563.035156 1042.1875 566.179688 1043.089844 569.277344 1044.152344 C 572.371094 1045.21875 575.40625 1046.441406 578.375 1047.820312 C 581.34375 1049.203125 584.234375 1050.734375 587.042969 1052.417969 C 589.851562 1054.101562 592.566406 1055.925781 595.1875 1057.890625 C 597.804688 1059.855469 600.316406 1061.953125 602.714844 1064.179688 C 605.117188 1066.40625 607.394531 1068.753906 609.550781 1071.21875 C 611.707031 1073.683594 613.726562 1076.253906 615.617188 1078.929688 C 617.503906 1081.605469 619.246094 1084.371094 620.847656 1087.230469 L 649.050781 1137.746094 C 651.441406 1142.011719 654.046875 1146.144531 656.867188 1150.140625 C 659.691406 1154.140625 662.710938 1157.976562 665.933594 1161.660156 C 669.15625 1165.339844 672.558594 1168.84375 676.148438 1172.171875 C 679.734375 1175.5 683.488281 1178.628906 687.402344 1181.566406 C 691.316406 1184.5 695.371094 1187.222656 699.570312 1189.738281 C 703.765625 1192.25 708.085938 1194.535156 712.523438 1196.597656 C 716.957031 1198.660156 721.492188 1200.484375 726.117188 1202.074219 C 730.746094 1203.664062 735.441406 1205.007812 740.210938 1206.109375 L 752.574219 1208.953125 C 753.554688 1209.402344 754.566406 1209.746094 755.617188 1209.984375 L 1108.421875 1291.175781 C 1109.464844 1291.414062 1110.523438 1291.546875 1111.597656 1291.574219 L 1173.421875 1305.800781 C 1175.136719 1306.191406 1176.859375 1306.542969 1178.589844 1306.851562 C 1180.320312 1307.15625 1182.058594 1307.421875 1183.804688 1307.644531 C 1185.550781 1307.867188 1187.296875 1308.042969 1189.050781 1308.179688 C 1190.804688 1308.316406 1192.558594 1308.410156 1194.320312 1308.460938 C 1196.078125 1308.511719 1197.835938 1308.519531 1199.59375 1308.484375 C 1201.351562 1308.445312 1203.105469 1308.367188 1204.863281 1308.246094 C 1206.617188 1308.125 1208.367188 1307.960938 1210.113281 1307.75 C 1211.859375 1307.542969 1213.601562 1307.292969 1215.332031 1307 C 1217.066406 1306.707031 1218.792969 1306.371094 1220.511719 1305.996094 C 1222.230469 1305.617188 1223.9375 1305.199219 1225.632812 1304.738281 C 1227.332031 1304.273438 1229.015625 1303.773438 1230.6875 1303.230469 C 1232.359375 1302.683594 1234.019531 1302.101562 1235.664062 1301.476562 C 1237.304688 1300.851562 1238.933594 1300.1875 1240.542969 1299.480469 C 1242.15625 1298.777344 1243.75 1298.03125 1245.324219 1297.25 C 1246.898438 1296.464844 1248.453125 1295.644531 1249.988281 1294.785156 C 1251.523438 1293.925781 1253.035156 1293.03125 1254.523438 1292.097656 C 1256.015625 1291.164062 1257.480469 1290.195312 1258.925781 1289.191406 C 1260.367188 1288.183594 1261.785156 1287.144531 1263.179688 1286.070312 C 1264.570312 1284.996094 1265.933594 1283.886719 1267.273438 1282.746094 C 1268.609375 1281.605469 1269.917969 1280.433594 1271.199219 1279.226562 C 1272.480469 1278.019531 1273.730469 1276.785156 1274.949219 1275.519531 C 1276.167969 1274.25 1277.359375 1272.957031 1278.511719 1271.628906 C 1279.667969 1270.304688 1280.792969 1268.953125 1281.882812 1267.574219 C 1282.972656 1266.191406 1284.027344 1264.785156 1285.046875 1263.355469 C 1286.070312 1261.921875 1287.054688 1260.464844 1288.003906 1258.988281 C 1288.953125 1257.507812 1289.867188 1256.003906 1290.742188 1254.480469 C 1291.617188 1252.953125 1292.457031 1251.410156 1293.257812 1249.84375 C 1294.058594 1248.277344 1294.816406 1246.691406 1295.539062 1245.089844 C 1296.261719 1243.484375 1296.945312 1241.867188 1297.589844 1240.230469 C 1298.230469 1238.59375 1298.835938 1236.941406 1299.398438 1235.273438 C 1299.957031 1233.609375 1300.480469 1231.929688 1300.960938 1230.238281 C 1301.441406 1228.546875 1301.878906 1226.84375 1302.273438 1225.128906 L 1368.683594 936.546875 C 1369.078125 934.832031 1369.425781 933.109375 1369.734375 931.375 C 1370.042969 929.644531 1370.308594 927.90625 1370.53125 926.160156 C 1370.753906 924.417969 1370.933594 922.667969 1371.070312 920.914062 C 1371.207031 919.160156 1371.300781 917.402344 1371.351562 915.644531 C 1371.402344 913.886719 1371.410156 912.128906 1371.375 910.371094 C 1371.339844 908.613281 1371.261719 906.855469 1371.140625 905.101562 C 1371.019531 903.34375 1370.855469 901.59375 1370.648438 899.847656 C 1370.441406 898.101562 1370.191406 896.359375 1369.898438 894.625 C 1369.605469 892.890625 1369.269531 891.164062 1368.894531 889.449219 C 1368.515625 887.730469 1368.097656 886.023438 1367.636719 884.324219 C 1367.175781 882.625 1366.671875 880.941406 1366.128906 879.269531 C 1365.585938 877.59375 1365 875.9375 1364.375 874.292969 C 1363.75 872.648438 1363.085938 871.019531 1362.382812 869.410156 C 1361.675781 867.796875 1360.933594 866.203125 1360.148438 864.628906 C 1359.367188 863.054688 1358.546875 861.496094 1357.6875 859.964844 C 1356.828125 858.429688 1355.929688 856.914062 1354.996094 855.425781 C 1354.066406 853.933594 1353.09375 852.464844 1352.089844 851.023438 C 1351.085938 849.578125 1350.046875 848.160156 1348.96875 846.769531 C 1347.894531 845.375 1346.785156 844.007812 1345.644531 842.671875 C 1344.503906 841.332031 1343.328125 840.023438 1342.125 838.742188 C 1340.917969 837.460938 1339.679688 836.210938 1338.414062 834.992188 C 1337.148438 833.773438 1335.851562 832.582031 1334.523438 831.425781 C 1333.199219 830.269531 1331.847656 829.148438 1330.464844 828.054688 C 1329.085938 826.964844 1327.679688 825.910156 1326.246094 824.890625 C 1324.816406 823.867188 1323.359375 822.882812 1321.878906 821.933594 C 1320.398438 820.984375 1318.894531 820.070312 1317.367188 819.191406 C 1315.84375 818.316406 1314.296875 817.476562 1312.730469 816.679688 C 1311.164062 815.878906 1309.578125 815.117188 1307.976562 814.394531 C 1306.371094 813.671875 1304.75 812.988281 1303.113281 812.34375 C 1301.476562 811.699219 1299.824219 811.097656 1298.15625 810.535156 C 1296.492188 809.972656 1294.8125 809.453125 1293.117188 808.972656 C 1291.425781 808.492188 1289.722656 808.054688 1288.007812 807.65625 L 854.84375 707.976562 C 850.074219 706.882812 845.257812 706.039062 840.402344 705.445312 C 835.542969 704.855469 830.667969 704.519531 825.777344 704.433594 C 820.882812 704.351562 816 704.523438 811.125 704.949219 C 806.25 705.375 801.410156 706.054688 796.605469 706.984375 C 791.804688 707.917969 787.0625 709.097656 782.378906 710.523438 C 777.699219 711.949219 773.105469 713.613281 768.597656 715.519531 C 764.089844 717.421875 759.695312 719.558594 755.410156 721.921875 C 751.125 724.285156 746.976562 726.863281 742.960938 729.660156 Z M 267.308594 905.171875 L 221.222656 894.5625 C 220.136719 894.316406 219.058594 894.039062 217.988281 893.734375 C 216.914062 893.433594 215.851562 893.105469 214.796875 892.75 C 213.738281 892.394531 212.691406 892.011719 211.65625 891.605469 C 210.617188 891.199219 209.59375 890.769531 208.578125 890.3125 C 207.5625 889.855469 206.558594 889.375 205.566406 888.867188 C 204.574219 888.363281 203.59375 887.832031 202.628906 887.277344 C 201.660156 886.722656 200.710938 886.148438 199.769531 885.546875 C 198.832031 884.945312 197.910156 884.320312 197.003906 883.675781 C 196.097656 883.03125 195.207031 882.363281 194.332031 881.671875 C 193.457031 880.980469 192.601562 880.273438 191.761719 879.539062 C 190.921875 878.808594 190.101562 878.054688 189.296875 877.285156 C 188.496094 876.511719 187.710938 875.71875 186.949219 874.910156 C 186.183594 874.097656 185.441406 873.269531 184.71875 872.421875 C 183.996094 871.574219 183.292969 870.710938 182.613281 869.828125 C 181.933594 868.949219 181.273438 868.050781 180.636719 867.136719 C 180 866.222656 179.386719 865.292969 178.796875 864.351562 C 178.203125 863.40625 177.636719 862.449219 177.09375 861.476562 C 176.550781 860.503906 176.03125 859.519531 175.535156 858.523438 C 175.039062 857.523438 174.570312 856.515625 174.121094 855.496094 C 173.675781 854.476562 173.257812 853.445312 172.859375 852.402344 C 172.464844 851.363281 172.09375 850.3125 171.75 849.253906 C 171.40625 848.191406 171.089844 847.125 170.800781 846.050781 C 170.507812 844.976562 170.242188 843.894531 170.003906 842.808594 C 169.765625 841.71875 169.554688 840.625 169.371094 839.527344 C 169.183594 838.429688 169.027344 837.328125 168.898438 836.222656 C 168.765625 835.117188 168.664062 834.007812 168.585938 832.894531 C 168.511719 831.785156 168.460938 830.671875 168.441406 829.558594 C 168.417969 828.445312 168.425781 827.332031 168.457031 826.21875 C 168.492188 825.105469 168.550781 823.996094 168.640625 822.882812 C 168.726562 821.773438 168.84375 820.667969 168.984375 819.5625 C 169.128906 818.457031 169.296875 817.359375 169.492188 816.261719 C 169.6875 815.164062 169.910156 814.074219 170.160156 812.988281 C 170.410156 811.902344 170.6875 810.824219 170.992188 809.753906 C 171.292969 808.683594 171.621094 807.617188 171.976562 806.5625 C 172.332031 805.507812 172.710938 804.460938 173.117188 803.425781 C 173.523438 802.386719 173.957031 801.359375 174.414062 800.34375 C 174.871094 799.328125 175.351562 798.324219 175.855469 797.332031 C 176.363281 796.34375 176.894531 795.363281 177.445312 794.398438 C 178 793.429688 178.578125 792.480469 179.179688 791.542969 C 179.78125 790.605469 180.402344 789.679688 181.050781 788.773438 C 181.695312 787.867188 182.363281 786.976562 183.054688 786.101562 C 183.742188 785.226562 184.453125 784.371094 185.1875 783.53125 C 185.917969 782.691406 186.671875 781.871094 187.441406 781.070312 C 188.214844 780.265625 189.007812 779.484375 189.816406 778.71875 C 190.628906 777.957031 191.457031 777.214844 192.304688 776.488281 C 193.152344 775.765625 194.015625 775.066406 194.898438 774.386719 C 195.777344 773.703125 196.675781 773.046875 197.589844 772.410156 C 198.503906 771.773438 199.433594 771.160156 200.378906 770.570312 C 201.320312 769.976562 202.277344 769.410156 203.25 768.867188 C 204.222656 768.324219 205.207031 767.804688 206.207031 767.308594 C 207.203125 766.8125 208.210938 766.34375 209.230469 765.898438 C 210.253906 765.449219 211.285156 765.03125 212.324219 764.636719 C 213.367188 764.238281 214.417969 763.871094 215.476562 763.527344 C 216.535156 763.183594 217.601562 762.867188 218.675781 762.574219 C 219.753906 762.28125 220.832031 762.019531 221.921875 761.78125 C 223.007812 761.542969 224.101562 761.332031 225.203125 761.144531 C 226.300781 760.960938 227.402344 760.804688 228.507812 760.671875 C 229.613281 760.542969 230.722656 760.4375 231.832031 760.363281 C 232.945312 760.289062 234.058594 760.238281 235.171875 760.21875 C 236.285156 760.195312 237.398438 760.203125 238.511719 760.234375 C 239.625 760.269531 240.734375 760.328125 241.847656 760.417969 C 242.957031 760.503906 244.0625 760.621094 245.167969 760.761719 C 246.273438 760.902344 247.375 761.074219 248.46875 761.269531 C 249.566406 761.464844 250.65625 761.6875 251.742188 761.9375 L 297.832031 772.542969 C 309.78125 775.277344 321.878906 776.949219 334.125 777.566406 C 346.367188 778.183594 358.574219 777.730469 370.738281 776.210938 L 334.484375 933.753906 C 324.207031 927.066406 313.429688 921.324219 302.148438 916.523438 C 290.867188 911.722656 279.253906 907.9375 267.308594 905.171875 Z M 368.167969 997.898438 C 367.15625 997.664062 366.175781 997.332031 365.230469 996.90625 C 364.285156 996.480469 363.390625 995.964844 362.542969 995.363281 C 361.699219 994.757812 360.921875 994.078125 360.210938 993.324219 C 359.5 992.566406 358.867188 991.75 358.316406 990.871094 C 357.765625 989.992188 357.304688 989.066406 356.9375 988.097656 C 356.570312 987.125 356.296875 986.128906 356.125 985.105469 C 355.953125 984.082031 355.878906 983.050781 355.910156 982.015625 C 355.941406 980.976562 356.070312 979.953125 356.300781 978.941406 L 410.257812 744.484375 C 410.492188 743.472656 410.820312 742.496094 411.246094 741.550781 C 411.675781 740.605469 412.1875 739.707031 412.792969 738.863281 C 413.394531 738.019531 414.074219 737.242188 414.828125 736.527344 C 415.585938 735.816406 416.402344 735.1875 417.28125 734.636719 C 418.164062 734.085938 419.085938 733.625 420.058594 733.257812 C 421.027344 732.886719 422.023438 732.617188 423.046875 732.445312 C 424.070312 732.273438 425.101562 732.199219 426.140625 732.230469 C 427.175781 732.261719 428.203125 732.390625 429.214844 732.621094 L 562.171875 763.21875 L 501.128906 1028.472656 Z M 676.480469 1122.398438 L 648.261719 1071.890625 C 646.128906 1068.082031 643.804688 1064.390625 641.285156 1060.820312 C 638.769531 1057.25 636.070312 1053.820312 633.195312 1050.53125 C 630.320312 1047.242188 627.28125 1044.113281 624.082031 1041.140625 C 620.878906 1038.171875 617.53125 1035.375 614.035156 1032.753906 C 610.542969 1030.128906 606.921875 1027.695312 603.175781 1025.453125 C 599.425781 1023.207031 595.570312 1021.164062 591.613281 1019.320312 C 587.652344 1017.480469 583.605469 1015.847656 579.472656 1014.425781 C 575.34375 1013.007812 571.148438 1011.804688 566.890625 1010.824219 L 538.890625 1004.378906 L 585.597656 801.417969 L 613.597656 807.859375 C 617.855469 808.835938 622.152344 809.589844 626.488281 810.117188 C 630.824219 810.644531 635.175781 810.945312 639.542969 811.019531 C 643.914062 811.09375 648.273438 810.941406 652.625 810.5625 C 656.976562 810.179688 661.292969 809.574219 665.582031 808.746094 C 669.871094 807.914062 674.105469 806.863281 678.285156 805.589844 C 682.460938 804.316406 686.5625 802.832031 690.585938 801.132812 C 694.609375 799.433594 698.535156 797.527344 702.359375 795.417969 C 706.183594 793.308594 709.890625 791.007812 713.472656 788.511719 L 760.933594 755.40625 C 764.050781 753.234375 767.273438 751.234375 770.597656 749.398438 C 773.925781 747.5625 777.339844 745.90625 780.839844 744.425781 C 784.339844 742.949219 787.90625 741.65625 791.539062 740.546875 C 795.175781 739.441406 798.855469 738.527344 802.585938 737.804688 C 806.316406 737.078125 810.074219 736.550781 813.859375 736.222656 C 817.644531 735.890625 821.4375 735.757812 825.234375 735.820312 C 829.035156 735.886719 832.820312 736.148438 836.589844 736.605469 C 840.363281 737.066406 844.097656 737.71875 847.800781 738.570312 L 847.992188 738.613281 L 747.441406 1175.558594 L 747.25 1175.515625 C 743.546875 1174.660156 739.902344 1173.617188 736.308594 1172.378906 C 732.714844 1171.144531 729.195312 1169.726562 725.75 1168.125 C 722.304688 1166.519531 718.953125 1164.742188 715.691406 1162.792969 C 712.433594 1160.839844 709.285156 1158.722656 706.246094 1156.441406 C 703.207031 1154.160156 700.296875 1151.730469 697.511719 1149.144531 C 694.726562 1146.558594 692.082031 1143.835938 689.582031 1140.976562 C 687.082031 1138.117188 684.734375 1135.136719 682.546875 1132.03125 C 680.355469 1128.925781 678.332031 1125.714844 676.480469 1122.398438 Z M 778.039062 1182.601562 L 878.523438 745.945312 L 1200.71875 820.089844 L 1100.234375 1256.746094 Z M 1338.074219 929.5 L 1271.664062 1218.085938 C 1271.386719 1219.300781 1271.074219 1220.507812 1270.734375 1221.703125 C 1270.394531 1222.902344 1270.027344 1224.089844 1269.628906 1225.273438 C 1269.230469 1226.453125 1268.804688 1227.621094 1268.347656 1228.78125 C 1267.894531 1229.941406 1267.410156 1231.085938 1266.898438 1232.222656 C 1266.386719 1233.359375 1265.847656 1234.480469 1265.28125 1235.589844 C 1264.714844 1236.699219 1264.121094 1237.792969 1263.5 1238.871094 C 1262.878906 1239.953125 1262.234375 1241.015625 1261.5625 1242.066406 C 1260.886719 1243.113281 1260.191406 1244.144531 1259.46875 1245.15625 C 1258.746094 1246.171875 1257.996094 1247.167969 1257.226562 1248.144531 C 1256.453125 1249.121094 1255.65625 1250.082031 1254.839844 1251.019531 C 1254.019531 1251.957031 1253.179688 1252.875 1252.316406 1253.773438 C 1251.449219 1254.667969 1250.566406 1255.542969 1249.660156 1256.398438 C 1248.75 1257.25 1247.824219 1258.082031 1246.875 1258.890625 C 1245.929688 1259.699219 1244.960938 1260.484375 1243.976562 1261.246094 C 1242.992188 1262.003906 1241.984375 1262.742188 1240.964844 1263.453125 C 1239.941406 1264.164062 1238.902344 1264.851562 1237.847656 1265.511719 C 1236.792969 1266.171875 1235.71875 1266.808594 1234.632812 1267.414062 C 1233.546875 1268.023438 1232.445312 1268.605469 1231.328125 1269.160156 C 1230.214844 1269.710938 1229.085938 1270.238281 1227.945312 1270.738281 C 1226.804688 1271.238281 1225.652344 1271.707031 1224.488281 1272.148438 C 1223.324219 1272.59375 1222.148438 1273.003906 1220.964844 1273.390625 C 1219.777344 1273.773438 1218.585938 1274.128906 1217.382812 1274.457031 C 1216.179688 1274.78125 1214.972656 1275.078125 1213.753906 1275.347656 C 1212.539062 1275.613281 1211.316406 1275.851562 1210.089844 1276.058594 C 1208.859375 1276.265625 1207.628906 1276.441406 1206.390625 1276.589844 C 1205.152344 1276.734375 1203.914062 1276.851562 1202.671875 1276.9375 C 1201.429688 1277.023438 1200.183594 1277.078125 1198.941406 1277.101562 C 1197.695312 1277.128906 1196.449219 1277.121094 1195.203125 1277.085938 C 1193.960938 1277.050781 1192.714844 1276.984375 1191.472656 1276.886719 C 1190.234375 1276.789062 1188.992188 1276.660156 1187.757812 1276.503906 C 1186.523438 1276.34375 1185.292969 1276.15625 1184.066406 1275.9375 C 1182.839844 1275.722656 1181.621094 1275.472656 1180.40625 1275.195312 L 1130.832031 1263.785156 L 1231.386719 826.839844 L 1280.96875 838.25 C 1282.183594 838.53125 1283.386719 838.84375 1284.585938 839.183594 C 1285.785156 839.523438 1286.972656 839.890625 1288.152344 840.289062 C 1289.332031 840.6875 1290.503906 841.113281 1291.660156 841.570312 C 1292.820312 842.023438 1293.96875 842.507812 1295.105469 843.019531 C 1296.238281 843.53125 1297.359375 844.070312 1298.46875 844.636719 C 1299.578125 845.203125 1300.671875 845.796875 1301.753906 846.417969 C 1302.832031 847.039062 1303.898438 847.6875 1304.945312 848.359375 C 1305.992188 849.03125 1307.023438 849.730469 1308.039062 850.453125 C 1309.050781 851.175781 1310.046875 851.921875 1311.027344 852.695312 C 1312.003906 853.464844 1312.960938 854.261719 1313.898438 855.082031 C 1314.835938 855.898438 1315.753906 856.742188 1316.652344 857.605469 C 1317.550781 858.46875 1318.425781 859.351562 1319.277344 860.261719 C 1320.132812 861.167969 1320.964844 862.09375 1321.769531 863.042969 C 1322.578125 863.988281 1323.363281 864.957031 1324.125 865.941406 C 1324.886719 866.925781 1325.621094 867.929688 1326.332031 868.953125 C 1327.046875 869.976562 1327.730469 871.015625 1328.390625 872.070312 C 1329.050781 873.125 1329.6875 874.195312 1330.296875 875.285156 C 1330.902344 876.371094 1331.484375 877.472656 1332.039062 878.585938 C 1332.59375 879.703125 1333.117188 880.828125 1333.617188 881.972656 C 1334.117188 883.113281 1334.585938 884.265625 1335.03125 885.429688 C 1335.472656 886.59375 1335.886719 887.765625 1336.269531 888.953125 C 1336.65625 890.136719 1337.011719 891.328125 1337.335938 892.53125 C 1337.664062 893.734375 1337.960938 894.941406 1338.226562 896.15625 C 1338.492188 897.375 1338.730469 898.597656 1338.9375 899.824219 C 1339.144531 901.050781 1339.320312 902.285156 1339.46875 903.519531 C 1339.613281 904.757812 1339.730469 905.996094 1339.816406 907.238281 C 1339.902344 908.480469 1339.957031 909.726562 1339.984375 910.972656 C 1340.007812 912.214844 1340.003906 913.460938 1339.964844 914.707031 C 1339.929688 915.949219 1339.863281 917.195312 1339.765625 918.433594 C 1339.667969 919.675781 1339.542969 920.914062 1339.382812 922.148438 C 1339.226562 923.386719 1339.039062 924.617188 1338.820312 925.84375 C 1338.601562 927.066406 1338.355469 928.289062 1338.074219 929.5 Z M 1338.074219 929.5 " fill-opacity="1" fill-rule="nonzero"/></g></g></g></g><g clip-path="url(#84105959a5)"><g clip-path="url(#32630587a7)"><g clip-path="url(#d126f0e068)"><g clip-path="url(#aee1d51202)"><path fill="#000000" d="M 593.277344 278.898438 L 646.039062 259.667969 L 567.164062 587.617188 C 569.507812 590.28125 571.769531 594.199219 574.109375 596.863281 L 603.355469 650.265625 L 701.144531 243.101562 C 701.226562 241.847656 701.304688 240.597656 701.464844 238.09375 L 994.863281 131.273438 L 1119.25 405.679688 L 1012.789062 849.988281 L 958.050781 880.402344 C 948.96875 884.84375 944.570312 894.613281 945.261719 903.457031 L 950.898438 991.785156 L 893.621094 1042.140625 C 885.628906 1049.167969 882.402344 1060.273438 886.765625 1070.605469 L 933.671875 1181.691406 L 923.507812 1222.511719 C 936.390625 1237.160156 946.609375 1254.152344 955.496094 1272.320312 C 958 1272.480469 960.503906 1272.640625 963.085938 1271.550781 L 983.734375 1184.910156 C 985.304688 1179.984375 984.457031 1173.644531 982.195312 1169.730469 L 939.734375 1067.726562 L 993.015625 1020.878906 C 998.339844 1016.195312 1001.328125 1008.847656 1001.890625 1000.085938 L 997.265625 915.59375 L 1048.085938 887.441406 C 1054.585938 884.089844 1058.742188 878.070312 1060.476562 870.644531 L 1154.796875 478.335938 L 1174.589844 522.335938 C 1179.035156 531.417969 1187.472656 536.988281 1196.234375 537.550781 C 1199.992188 537.789062 1203.824219 536.78125 1207.660156 535.769531 C 1220.578125 530.316406 1225.296875 515.539062 1219.84375 502.621094 L 1031.550781 88.390625 C 1026.015625 76.726562 1012.570312 70.835938 999.734375 75.039062 L 576.148438 232.558594 C 563.3125 236.757812 556.089844 251.375 561.542969 264.292969 C 565.746094 277.128906 580.363281 284.351562 593.277344 278.898438 Z M 593.277344 278.898438 " fill-opacity="1" fill-rule="nonzero"/></g></g></g></g><g clip-path="url(#071c1d209b)"><g clip-path="url(#081898c153)"><g clip-path="url(#9d2bbc7565)"><g clip-path="url(#661e40f109)"><path fill="#000000" d="M 981.148438 1322.976562 C 961.121094 1321.691406 942.1875 1322.988281 923.011719 1328.039062 C 904.054688 1251.421875 836.175781 1193.023438 751.066406 1187.554688 C 662.207031 1181.847656 583.25 1237.09375 559.332031 1315.984375 C 542.132812 1309.855469 523.519531 1306.144531 504.746094 1304.9375 C 472.207031 1302.847656 440.433594 1308.347656 410.601562 1322.769531 C 380.105469 1269.285156 322.121094 1232.886719 258.289062 1228.785156 C 234.511719 1227.257812 210.410156 1230.738281 187.398438 1236.800781 C 171.105469 1157.839844 100.882812 1096.777344 15.773438 1091.3125 C -78.09375 1085.28125 -161.285156 1147.796875 -179.425781 1234.597656 C -198.96875 1225.804688 -221.257812 1220.601562 -243.785156 1219.15625 C -347.667969 1212.480469 -436.746094 1288.441406 -443.179688 1388.5625 C -444.0625 1402.328125 -434.246094 1425.582031 -420.480469 1426.464844 C -406.710938 1427.347656 1116.898438 1537.792969 1130.667969 1538.675781 C 1144.433594 1539.558594 1156.421875 1529.019531 1157.308594 1515.253906 C 1163.65625 1416.382812 1085.027344 1329.648438 981.148438 1322.976562 Z M 981.148438 1322.976562 " fill-opacity="1" fill-rule="nonzero"/></g></g></g></g><g clip-path="url(#9655cab196)"><g clip-path="url(#31a7511342)"><g clip-path="url(#4691a5543b)"><g clip-path="url(#5367596e04)"><path fill="#000000" d="M 875.964844 322.710938 L 925.578125 350.386719 L 622.277344 506.878906 C 621.785156 510.433594 620.28125 514.753906 619.789062 518.308594 L 598.230469 576.015625 L 974.699219 381.621094 C 975.710938 380.851562 976.722656 380.085938 978.742188 378.554688 L 1254.53125 532.539062 L 1126.625 809.230469 L 715.980469 1021.550781 L 656.496094 999.757812 C 647.089844 995.742188 636.699219 998.839844 630.382812 1005.210938 L 566.46875 1067.941406 L 490.035156 1057.394531 C 479.371094 1055.921875 468.734375 1060.792969 463.703125 1070.96875 L 409.640625 1180.339844 L 371.664062 1199.554688 C 368.960938 1219.105469 362.703125 1238.167969 354.671875 1256.984375 C 356.203125 1259.003906 357.734375 1261.027344 360.277344 1262.285156 L 440.277344 1220.796875 C 445.089844 1218.742188 449.382812 1213.898438 450.886719 1209.578125 L 500.929688 1109.617188 L 572.03125 1119.425781 C 579.140625 1120.40625 586.742188 1117.832031 593.824219 1112.472656 L 655.472656 1053.050781 L 710.632812 1073.34375 C 717.496094 1076.101562 724.851562 1075.304688 731.6875 1071.71875 L 1094.484375 884.496094 L 1073.878906 928.746094 C 1069.859375 938.15625 1071.175781 948.300781 1076.539062 955.378906 C 1078.835938 958.414062 1082.144531 960.679688 1085.453125 962.949219 C 1098.171875 969.234375 1112.609375 963.074219 1118.894531 950.355469 L 1311.628906 532.265625 C 1316.902344 520.3125 1312.523438 506.125 1300.820312 499.074219 L 900.128906 278.949219 C 888.421875 271.902344 872.453125 276.039062 866.167969 288.753906 C 859.117188 300.460938 863.25 316.429688 875.964844 322.710938 Z M 875.964844 322.710938 " fill-opacity="1" fill-rule="nonzero"/></g></g></g></g><g clip-path="url(#49f72f3f58)"><g clip-path="url(#4272a4f449)"><g clip-path="url(#64f362779e)"><g clip-path="url(#5842ce9d0e)"><path fill="#000000" d="M 332.835938 1310.121094 C 320.578125 1293.9375 307.066406 1280.300781 290.519531 1268.960938 C 336.664062 1203.78125 336.503906 1113.191406 284.421875 1044.417969 C 230.042969 972.609375 135.53125 948.703125 59.300781 982.558594 C 52.625 965.335938 43.160156 948.632812 31.667969 933.464844 C 11.753906 907.167969 -13.460938 886.480469 -44.226562 873.179688 C -23.433594 814.460938 -33.894531 746 -72.957031 694.417969 C -87.511719 675.203125 -106.109375 659.050781 -125.964844 645.445312 C -76.269531 580.753906 -75.9375 486.609375 -128.019531 417.835938 C -185.460938 341.984375 -288.339844 319.636719 -366.8125 363.148438 C -372.996094 342.371094 -383.746094 321.867188 -397.535156 303.664062 C -461.105469 219.71875 -578.175781 201.753906 -659.101562 263.042969 C -670.230469 271.46875 -681.542969 294.359375 -673.121094 305.484375 C -664.695312 316.609375 258.078125 1556.113281 266.503906 1567.238281 C 274.929688 1578.363281 290.925781 1580.570312 302.054688 1572.140625 C 381.96875 1511.621094 396.40625 1394.0625 332.835938 1310.121094 Z M 332.835938 1310.121094 " fill-opacity="1" fill-rule="nonzero"/></g></g></g></g></svg>